<svg id="Layer_1" data-name="Layer 1" xmlns="http://www.w3.org/2000/svg" viewBox="0 0 400 400"><defs><style>.cls-1{fill:#fff;}</style></defs><title>logo</title><path class="cls-1" d="M177.29,179.2a16.14,16.14,0,0,1-7.65-1.84l.46,2.75c2.75,11.32,13.15,20.19,13.31,20.19l-7.8,9.48C175,209.33,162,198.47,158.17,183a38.26,38.26,0,0,1,4.28-28.45,16.69,16.69,0,0,1,31.36,8A16.48,16.48,0,0,1,177.29,179.2Zm65.31-16.83a16.69,16.69,0,0,0-31.36-8A37.85,37.85,0,0,0,207,182.87c3.82,15.3,16.83,26.31,17.44,26.77l7.8-9.48c-.15-.15-10.55-8.87-13.31-20.19l-.46-2.75a16.14,16.14,0,0,0,7.65,1.84A16.48,16.48,0,0,0,242.6,162.37Zm48.18,132.77L247,261H100.19a23.4,23.4,0,0,1-23.4-23.4V128.26a23.4,23.4,0,0,1,23.4-23.4H299.81a23.4,23.4,0,0,1,23.4,23.4V237.47a23.4,23.4,0,0,1-23.4,23.4h-8.87Zm-190.59-178A11.23,11.23,0,0,0,89,128.26V237.47a11.23,11.23,0,0,0,11.17,11.17H253.76l24.63,18.66V248.64h21.26a11.23,11.23,0,0,0,11.17-11.17V128.26a11.23,11.23,0,0,0-11.17-11.17Z"/></svg>